<svg width="920" height="350" viewBox="0 0 920 350" fill="none" xmlns="http://www.w3.org/2000/svg">
<path d="M847.694 345.252V47.7278H821.812V4.74951H919.642V47.7278H893.522V345.252H847.694Z" fill="white"/>
<path d="M728.496 350C674.832 350 645.863 317.944 645.863 270.217V229.138H717.573V271.167C717.573 282.802 721.61 288.263 729.208 288.263C737.994 288.263 741.318 280.427 741.318 268.555V252.883C741.318 231.038 737.281 221.777 725.171 212.042L684.805 179.512C656.311 156.716 646.338 133.209 646.338 97.3541V86.4315C646.338 32.5305 679.344 0 732.057 0C779.785 0 813.265 28.019 813.265 83.5821V109.227H742.268V78.1208C742.268 67.9104 738.943 61.7368 731.345 61.7368C723.509 61.7368 719.235 66.9606 719.235 80.2578V85.9566C719.235 101.628 722.322 111.364 733.957 121.336L773.611 155.292C799.493 177.612 814.215 197.558 814.215 243.86V260.719C814.215 319.132 783.821 350 728.496 350Z" fill="white"/>
<path d="M336.469 345.252L413.165 4.74951H563.945L641.828 345.252H532.839L521.679 280.903H454.718L444.033 345.252H336.469ZM467.541 205.631H509.094L488.436 84.295L467.541 205.631Z" fill="white"/>
<path d="M0 345.252V4.74951H176.425C275.916 4.74951 321.744 34.4307 321.744 96.6423C321.744 150.781 288.501 175.95 249.559 186.398C298.474 195.659 322.693 211.33 322.693 261.669V345.252H196.37V258.108C196.37 232.701 180.224 221.066 150.068 221.066H125.848V345.252H0ZM125.848 150.781H151.255C178.799 150.781 197.795 141.283 197.795 113.026C197.795 87.6193 179.986 78.3587 151.255 78.3587H125.848V150.781Z" fill="white"/>
</svg>
