<svg width="255" height="98" viewBox="0 0 255 98" fill="none" xmlns="http://www.w3.org/2000/svg">
<path d="M234.598 95.7142V13.3764H227.436V1.48242H254.509V13.3764H247.281V95.7142H234.598Z" fill="black"/>
<path d="M201.608 97.0283C186.757 97.0283 178.74 88.1571 178.74 74.9488V63.5806H198.585V75.2117C198.585 78.4316 199.703 79.943 201.805 79.943C204.237 79.943 205.157 77.7745 205.157 74.4889V70.1518C205.157 64.1063 204.04 61.5435 200.688 58.8493L189.517 49.8467C181.632 43.5383 178.872 37.0327 178.872 27.1101V24.0873C178.872 9.17059 188.006 0.167969 202.594 0.167969C215.802 0.167969 225.068 7.92205 225.068 23.2988V30.3957H205.42V21.7874C205.42 18.9618 204.5 17.2532 202.397 17.2532C200.228 17.2532 199.045 18.6989 199.045 22.3788V23.9559C199.045 28.2929 199.9 30.9872 203.12 33.7471L214.094 43.144C221.256 49.321 225.33 54.8408 225.33 67.6548V72.3203C225.33 88.4856 216.919 97.0283 201.608 97.0283Z" fill="black"/>
<path d="M93.1182 95.7142L114.343 1.48242H156.071L177.625 95.7142H147.462L144.374 77.9061H125.843L122.886 95.7142H93.1182ZM129.391 57.0752H140.891L135.174 23.4961L129.391 57.0752Z" fill="black"/>
<path d="M0 95.7142V1.48242H48.8244C76.358 1.48242 89.0405 9.69649 89.0405 26.9132C89.0405 41.8956 79.8407 48.8612 69.0639 51.7525C82.6007 54.3153 89.3034 58.6523 89.3034 72.5834V95.7142H54.3443V71.5977C54.3443 64.5665 49.8758 61.3465 41.5303 61.3465H34.8277V95.7142H0ZM34.8277 41.8956H41.8589C49.4815 41.8956 54.7386 39.2671 54.7386 31.4473C54.7386 24.4161 49.8101 21.8533 41.8589 21.8533H34.8277V41.8956Z" fill="black"/>
</svg>
