<svg width="320" height="320" viewBox="0 0 320 320" fill="none" xmlns="http://www.w3.org/2000/svg">
<path d="M191.599 78.019C198.179 83.7079 201.862 91.6318 202.648 101.79H281.026C280.928 81.3714 276.017 63.5428 266.294 48.3048C256.668 32.9651 242.967 21.0794 225.189 12.6476C207.412 4.21583 186.344 0 161.986 0C138.119 0 116.953 4.16512 98.4877 12.4953C80.1209 20.8254 65.7318 32.4571 55.3207 47.3905C46.9243 59.4659 41.9786 73.1911 40.4833 88.566L15.9052 81.7545L0 143.15L304.095 227.426L320 166.031L152.085 119.496C150.498 118.994 148.985 118.476 147.548 117.943C142.342 116.013 138.07 113.879 134.73 111.543C131.391 109.105 128.935 106.413 127.364 103.467C125.891 100.419 125.252 97.0159 125.449 93.2572C125.547 88.6857 126.873 84.6223 129.426 81.0667C131.98 77.5111 135.909 74.7175 141.213 72.6857C146.615 70.5524 153.539 69.4858 161.986 69.4858C175.245 69.4858 185.116 72.3301 191.599 78.019Z" fill="white"/>
<path d="M284.338 237.752L198.459 213.951C200.387 217.007 201.39 220.458 201.47 224.305C201.371 229.384 199.8 233.905 196.755 237.867C193.71 241.829 189.241 244.927 183.348 247.162C177.455 249.397 170.138 250.514 161.396 250.514C150.985 250.514 141.998 248.838 134.436 245.486C126.971 242.133 121.176 237.206 117.051 230.705C112.926 224.203 110.618 216.178 110.127 206.629H32.3376C32.4358 232.737 37.8378 254.172 48.5436 270.933C59.3477 287.594 74.4733 299.937 93.9205 307.962C113.466 315.987 136.351 320 162.575 320C188.112 320 209.965 316.292 228.136 308.876C246.404 301.46 260.45 290.641 270.272 276.419C277.871 265.415 282.56 252.526 284.338 237.752Z" fill="white"/>
</svg>
