<svg width="2006" height="374" viewBox="0 0 2006 374" fill="none" xmlns="http://www.w3.org/2000/svg">
<path d="M42.5426 369V5.36363H186.009C213.471 5.36363 236.908 10.276 256.321 20.1008C275.852 29.8073 290.708 43.5975 300.888 61.4716C311.186 79.2273 316.335 100.12 316.335 124.149C316.335 148.297 311.127 169.071 300.71 186.472C290.294 203.754 275.201 217.011 255.433 226.244C235.784 235.477 211.991 240.094 184.055 240.094H87.9972V178.304H171.626C186.304 178.304 198.497 176.292 208.203 172.267C217.91 168.242 225.13 162.205 229.865 154.156C234.718 146.107 237.145 136.105 237.145 124.149C237.145 112.075 234.718 101.895 229.865 93.6094C225.13 85.3234 217.85 79.0497 208.026 74.7883C198.319 70.4086 186.068 68.2188 171.271 68.2188H119.425V369H42.5426ZM238.92 203.517L329.297 369H244.425L156.001 203.517H238.92Z" fill="white"/>
<path d="M631.271 369H548.885L674.417 5.36363H773.494L898.849 369H816.463L725.376 88.4602H722.535L631.271 369ZM626.122 226.067H820.724V286.081H626.122V226.067Z" fill="white"/>
<path d="M1681.76 68.7514V5.36363H1980.41V68.7514H1869.09V369H1793.09V68.7514H1681.76Z" fill="white"/>
<path d="M1312.27 91.1848C1319.68 97.8337 1323.83 107.095 1324.72 118.968H1413.01C1412.9 95.1029 1407.37 74.2657 1396.42 56.4562C1385.57 38.5279 1370.14 24.6365 1350.11 14.7819C1330.08 4.9273 1306.35 0 1278.91 0C1252.02 0 1228.18 4.86794 1207.38 14.6038C1186.69 24.3397 1170.48 37.9343 1158.75 55.3876C1149.29 69.5011 1143.72 85.5428 1142.03 103.513L1114.43 95.5752L1098 161.358L1440.57 259.857L1457 194.074L1267.79 139.67C1265.99 139.08 1264.27 138.472 1262.65 137.846C1256.78 135.59 1251.97 133.097 1248.21 130.366C1244.44 127.516 1241.68 124.37 1239.91 120.927C1238.25 117.365 1237.53 113.387 1237.75 108.994C1237.86 103.651 1239.35 98.9022 1242.23 94.7467C1245.11 90.5911 1249.53 87.326 1255.51 84.9514C1261.59 82.4581 1269.39 81.2114 1278.91 81.2114C1293.85 81.2114 1304.97 84.5359 1312.27 91.1848Z" fill="white"/>
<path d="M1318.08 278.007C1319.81 275.671 1321.12 273.17 1322 270.502L1413.02 296.672C1410.23 306.313 1406.19 315.11 1400.9 323.065C1389.83 339.687 1374.01 352.332 1353.43 360.999C1332.96 369.666 1308.34 374 1279.57 374C1250.03 374 1224.25 369.31 1202.23 359.93C1180.32 350.551 1163.28 336.125 1151.11 316.653C1139.05 297.063 1132.97 272.011 1132.86 241.497H1220.49C1221.04 252.658 1223.64 262.037 1228.29 269.636C1232.94 277.235 1239.46 282.993 1247.87 286.911C1256.39 290.83 1266.52 292.789 1278.25 292.789C1288.09 292.789 1296.34 291.483 1302.98 288.87C1309.61 286.258 1314.65 282.637 1318.08 278.007Z" fill="white"/>
</svg>
