<svg width="50" height="50" viewBox="0 0 50 50" fill="none" xmlns="http://www.w3.org/2000/svg">
<path d="M32.93 14.6556C32.7519 12.7395 31.9877 11.251 30.6373 10.19C29.287 9.12906 27.4543 8.59857 25.1394 8.59857C23.5665 8.59857 22.2384 8.8361 21.1551 9.31116C20.0719 9.77039 19.2409 10.4117 18.6622 11.2352C18.0983 12.0586 17.8163 12.9929 17.8163 14.038C17.7866 14.9089 17.9573 15.669 18.3283 16.3183C18.7141 16.9675 19.2409 17.5297 19.9086 18.0048C20.5764 18.464 21.348 18.8678 22.2235 19.2162C23.099 19.5487 24.0339 19.8337 25.0281 20.0713L29.1237 21.1164C31.1122 21.5914 32.9374 22.2249 34.5994 23.0166C36.2613 23.8084 37.7007 24.7823 38.9175 25.9382C40.1343 27.0942 41.0766 28.4561 41.7444 30.0238C42.427 31.5914 42.7757 33.3888 42.7905 35.4157C42.7757 38.3927 42.0634 40.9739 40.6537 43.1591C39.2588 45.3286 37.2407 47.015 34.5994 48.2185C31.9728 49.4062 28.8047 50 25.0949 50C21.4148 50 18.2096 49.3983 15.4792 48.1948C12.7636 46.9913 10.6416 45.2098 9.11319 42.8504C7.5996 40.4751 6.80571 37.5376 6.73151 34.038H16.0579C16.1618 35.669 16.5995 37.0309 17.3712 38.1235C18.1576 39.2003 19.2038 40.0158 20.5096 40.5701C21.8303 41.1085 23.3216 41.3777 24.9836 41.3777C26.6159 41.3777 28.033 41.1243 29.235 40.6176C30.4518 40.1108 31.3941 39.4062 32.0619 38.5036C32.7296 37.6009 33.0635 36.5637 33.0635 35.3919C33.0635 34.2993 32.7593 33.3808 32.1509 32.6366C31.5573 31.8923 30.6818 31.2589 29.5244 30.7363C28.3818 30.2138 26.9795 29.7387 25.3175 29.3112L20.3538 27.981C16.5105 26.9834 13.4759 25.4236 11.25 23.3017C9.02416 21.1797 7.91864 18.3215 7.93348 14.7268C7.91864 11.7815 8.65318 9.20824 10.1371 7.00713C11.6358 4.80602 13.6911 3.08789 16.3027 1.85273C18.9144 0.617578 21.8822 0 25.2062 0C28.5895 0 31.5425 0.617578 34.0651 1.85273C36.6026 3.08789 38.5762 4.80602 39.9859 7.00713C41.3957 9.20824 42.1228 11.7577 42.1673 14.6556H32.93Z" fill="black"/>
<path d="M5.36281 10.6089L48.8031 30.5319L44.9736 39.9438L1.5333 20.0208L5.36281 10.6089Z" fill="white"/>
<path d="M2.82352 7.94019L50 29.7991L47.1765 36.7386L0 14.8797L2.82352 7.94019Z" fill="black"/>
</svg>
